<?xml version="1.0" standalone="no"?>
<!DOCTYPE svg PUBLIC "-//W3C//DTD SVG 20010904//EN"
 "http://www.w3.org/TR/2001/REC-SVG-20010904/DTD/svg10.dtd">
<svg version="1.0" xmlns="http://www.w3.org/2000/svg"
 width="780.000000pt" height="1040.000000pt" viewBox="0 0 780.000000 1040.000000"
 preserveAspectRatio="xMidYMid meet">

<g transform="translate(0.000000,1040.000000) scale(0.100000,-0.100000)"
fill="#000000" stroke="none">
<path d="M0 5200 l0 -5200 3900 0 3900 0 0 5200 0 5200 -3900 0 -3900 0 0
-5200z m5360 2065 c0 -11 11 -15 40 -15 29 0 40 4 40 15 0 12 16 15 80 15 l80
0 0 -40 0 -40 80 0 c64 0 80 3 80 15 0 11 11 15 40 15 22 0 40 -4 40 -9 0 -5
36 -12 80 -16 76 -7 80 -8 80 -31 0 -23 2 -24 80 -24 64 0 80 -3 80 -15 0 -11
11 -15 40 -15 36 0 40 -2 40 -25 0 -22 4 -25 40 -25 l40 0 0 -55 0 -55 38 -1
c20 -1 45 -1 55 0 14 2 17 -6 17 -38 0 -37 2 -41 25 -41 22 0 25 4 27 43 l1
42 4 -40 c3 -29 14 -48 39 -73 37 -36 43 -52 19 -52 -8 0 -15 -4 -15 -9 0 -5
7 -14 15 -21 8 -7 15 -21 15 -31 0 -15 8 -19 40 -19 l40 0 0 -40 0 -40 40 0
40 0 0 40 c0 29 4 40 15 40 11 0 15 -11 15 -40 0 -36 3 -40 25 -40 20 0 25 -5
25 -26 0 -32 21 -54 53 -54 24 0 25 -3 32 -86 4 -47 4 -112 1 -145 l-7 -59 41
0 40 0 0 -50 0 -50 43 -1 c23 -1 34 -3 25 -6 -13 -3 -18 -15 -18 -44 0 -32 3
-39 20 -39 17 0 20 -7 20 -40 0 -22 5 -40 10 -40 6 0 10 -18 10 -40 0 -22 -4
-40 -10 -40 -6 0 -10 -33 -10 -80 0 -47 4 -80 10 -80 6 0 10 -18 10 -40 0 -22
5 -40 10 -40 6 0 10 -33 10 -80 0 -72 2 -80 19 -80 16 0 20 -11 26 -76 5 -56
4 -79 -5 -84 -15 -9 -4 -151 12 -161 16 -10 -1 -159 -18 -159 -10 0 -14 -13
-14 -40 0 -27 4 -40 13 -40 20 0 45 -229 27 -240 -10 -6 -12 -43 -7 -164 l5
-156 -24 0 c-21 0 -24 -4 -24 -40 0 -22 5 -40 10 -40 6 0 10 -33 10 -80 0 -47
-4 -80 -10 -80 -6 0 -10 -47 -10 -120 0 -73 -4 -120 -10 -120 -6 0 -10 -31
-10 -74 0 -73 -14 -136 -31 -136 -5 0 -9 11 -9 25 0 16 -6 25 -15 25 -11 0
-15 -11 -15 -40 0 -22 -4 -40 -10 -40 -5 0 -10 -18 -10 -40 0 -23 -5 -40 -11
-40 -8 0 -10 -17 -7 -50 3 -27 1 -50 -3 -50 -5 0 -9 5 -9 10 0 6 -11 10 -25
10 -22 0 -25 -4 -25 -40 0 -22 -4 -40 -10 -40 -5 0 -11 -19 -11 -42 -1 -25 -4
-33 -6 -20 -8 42 -33 5 -33 -49 0 -41 -3 -49 -19 -49 -16 0 -20 -11 -26 -80
l-7 -80 -74 0 -74 0 0 -40 0 -40 -40 0 -40 0 0 -40 0 -40 -100 0 -100 0 0 -40
c0 -36 -2 -40 -25 -40 -20 0 -25 -5 -25 -25 0 -22 -4 -25 -40 -25 -29 0 -40
-4 -40 -15 0 -11 -11 -15 -40 -15 l-40 0 0 -45 0 -45 -120 7 -120 6 0 -46 0
-47 -40 0 c-33 0 -40 3 -40 20 0 17 -7 20 -40 20 l-40 0 0 -55 0 -55 -40 0
c-29 0 -40 4 -40 15 0 13 -20 15 -120 15 l-120 0 0 -29 0 -30 -87 -3 c-74 -3
-91 -1 -105 14 -9 10 -23 18 -32 18 -10 0 -16 9 -16 25 0 25 -1 25 -80 25 -64
0 -80 3 -80 15 0 12 -16 15 -80 15 -64 0 -80 -3 -80 -15 0 -11 -11 -15 -40
-15 l-40 0 0 -105 0 -105 -40 0 -40 0 0 -80 c0 -79 0 -80 -25 -80 -22 0 -25
-4 -25 -40 l0 -40 -55 0 -55 0 0 -40 c0 -33 3 -40 20 -40 18 0 20 -7 20 -80
l0 -80 -45 0 -45 0 0 -37 c0 -41 -18 -77 -27 -55 -2 6 -11 12 -19 12 -10 0
-14 -12 -14 -40 0 -30 -7 -47 -25 -66 -14 -14 -25 -31 -25 -39 0 -9 -10 -15
-26 -15 -23 0 -25 -3 -22 -42 2 -28 7 -42 16 -41 7 2 12 -8 12 -27 0 -21 -5
-30 -16 -30 -10 0 -13 -6 -10 -18 4 -12 -3 -26 -19 -40 -29 -25 -55 -29 -55
-7 0 22 -37 18 -50 -4 -15 -30 -14 -31 35 -31 44 0 45 -1 34 -21 -6 -13 -14
-17 -18 -11 -8 14 -37 -7 -44 -33 -4 -18 -5 -17 -6 3 0 13 -5 21 -10 17 -6 -3
-16 2 -23 10 -7 9 -18 21 -24 28 -6 7 -17 30 -24 52 -7 22 -28 66 -46 98 -19
32 -34 62 -34 66 0 18 -87 81 -120 87 -21 4 -47 20 -66 40 -20 21 -48 38 -79
46 -26 7 -50 18 -52 25 -3 7 22 40 54 73 124 125 158 269 110 474 -22 90 -74
202 -104 222 -22 14 -24 21 -20 62 6 66 46 263 58 284 13 25 11 78 -3 79 -7 1
-40 2 -73 4 -33 1 -109 14 -170 29 -60 14 -117 26 -126 26 -32 0 -44 27 -32
78 13 60 56 176 66 180 4 2 7 14 7 26 0 12 29 80 65 151 74 146 106 255 111
383 3 65 1 82 -10 82 -21 0 -86 69 -86 92 0 13 -5 18 -14 15 -13 -5 -46 21
-46 37 0 4 -9 16 -19 28 -20 21 -27 21 -118 2 -26 -5 -34 -2 -48 20 -26 40
-30 101 -10 146 19 43 27 46 63 26 21 -11 22 -14 8 -25 -23 -19 -20 -56 7 -73
17 -12 29 -13 54 -4 44 15 50 24 27 41 -18 14 -17 14 14 15 40 0 68 14 105 51
15 16 34 29 41 29 8 0 24 15 36 34 22 36 22 36 16 289 -1 46 3 70 12 76 23 14
27 115 8 179 -15 49 -16 75 -9 178 12 157 28 193 96 209 62 16 95 40 132 100
30 48 30 50 27 178 -2 122 -4 131 -32 180 -17 29 -44 80 -60 113 -25 50 -35
62 -55 62 -13 0 -31 7 -40 16 -11 11 -34 16 -70 16 -43 0 -56 4 -65 19 -5 11
-7 27 -4 35 3 9 -1 27 -10 41 -9 13 -16 33 -16 44 0 28 -21 71 -31 65 -5 -3
-9 0 -9 6 0 17 -52 120 -60 120 -4 0 -10 9 -13 20 -6 22 -55 28 -74 9 -11 -11
-88 -8 -148 6 -48 11 -91 36 -101 59 -13 29 -56 28 -69 -1 -14 -32 -83 -31
-150 2 -27 14 -58 25 -68 25 -21 0 -57 35 -57 55 0 9 -7 18 -15 21 -8 4 -15
14 -15 23 0 16 -42 61 -56 61 -3 0 -14 10 -25 23 l-18 22 -1 -22 c0 -14 -6
-23 -15 -23 -8 0 -15 -4 -15 -9 0 -5 7 -14 15 -21 8 -7 15 -21 15 -31 0 -11 4
-19 10 -19 5 0 7 -7 4 -15 -5 -13 -30 -15 -154 -14 -116 0 -160 -3 -204 -17
-31 -10 -56 -21 -56 -26 0 -4 -8 -8 -19 -8 -10 0 -63 -11 -119 -25 -56 -14
-111 -25 -122 -25 -30 0 -16 17 20 25 17 4 30 11 30 16 0 6 11 21 25 34 18 18
35 25 65 25 29 0 40 4 40 15 0 10 -10 15 -30 15 -28 0 -30 2 -30 40 0 22 5 40
10 40 6 0 10 17 10 39 0 35 3 39 30 44 16 4 73 4 125 0 l95 -6 0 40 c0 52 8
54 157 46 l113 -6 0 56 0 57 40 0 c36 0 40 3 40 25 0 17 5 25 18 25 9 0 23 9
30 20 21 35 32 22 32 -40 l0 -60 40 0 c39 0 40 1 40 35 0 26 9 45 32 70 34 38
48 44 48 20 0 -12 16 -15 80 -15 64 0 80 -3 80 -15 0 -11 11 -15 40 -15 l40 0
0 40 c0 29 -4 40 -15 40 -11 0 -15 11 -15 40 0 29 4 40 15 40 11 0 15 -11 15
-40 l0 -40 40 0 c38 0 40 -2 40 -30 0 -28 2 -30 40 -30 l40 0 0 45 0 45 80 0
c64 0 80 -3 80 -15 0 -11 11 -15 40 -15 l40 0 0 -40 0 -40 120 0 120 0 0 40 0
40 160 0 c136 0 160 2 160 15 0 11 11 15 40 15 29 0 40 -4 40 -15 0 -12 16
-15 80 -15 64 0 80 3 80 15 0 11 11 15 40 15 22 0 40 5 40 10 0 6 18 10 40 10
29 0 40 4 40 15 0 11 11 15 40 15 36 0 40 3 40 25 0 23 4 25 40 25 29 0 40 4
40 15 0 12 16 15 80 15 64 0 80 -3 80 -15 0 -12 16 -15 80 -15 64 0 80 3 80
15 0 11 11 15 40 15 l40 0 0 40 0 40 80 0 c64 0 80 -3 80 -15z m-2062 -2189
c8 -40 -57 -73 -86 -44 -18 18 -15 56 6 61 35 9 77 0 80 -17z m217 -1104 c-6
-16 -7 -16 -17 2 -8 14 -7 21 3 27 17 10 24 -4 14 -29z m-1863 -384 c-18 -18
-33 1 -21 24 11 20 12 20 21 4 7 -12 7 -21 0 -28z m1838 3 c0 -6 -4 -12 -8
-15 -5 -3 -9 1 -9 9 0 8 4 15 9 15 4 0 8 -4 8 -9z m-1010 -800 c0 -4 30 -12
68 -16 37 -4 74 -8 82 -10 8 -2 62 -13 120 -25 135 -28 236 -58 247 -73 11
-14 11 -8 -6 -107 -24 -143 -40 -181 -96 -231 -23 -21 -36 -41 -31 -45 5 -5
11 -3 13 4 9 25 23 11 23 -23 0 -37 -4 -41 -23 -25 -7 6 -24 19 -39 31 -15 11
-27 26 -25 32 1 7 -7 12 -18 12 -11 0 -25 9 -30 20 -6 11 -21 21 -33 23 -12 2
-22 8 -22 13 0 5 -7 9 -15 9 -9 0 -18 7 -22 15 -3 9 -17 22 -32 30 -14 8 -40
28 -58 44 -30 29 -36 31 -113 31 -109 0 -119 6 -110 67 5 26 16 75 25 108 9
33 17 69 18 80 1 11 6 25 12 32 12 14 65 17 65 4z m2430 -271 c0 -29 -4 -40
-15 -40 -11 0 -15 11 -15 40 0 29 4 40 15 40 11 0 15 -11 15 -40z m-1094 -446
c-16 -61 -95 -134 -146 -134 -42 0 -37 27 9 55 18 11 54 39 80 62 53 49 66 53
57 17z"/>
<path d="M4290 6872 c0 -21 26 -27 104 -24 66 3 86 7 86 18 0 11 -19 14 -95
14 -52 0 -95 -4 -95 -8z"/>
<path d="M7053 3880 c0 -25 2 -35 4 -22 2 12 2 32 0 45 -2 12 -4 2 -4 -23z"/>
<path d="M6622 3148 c-16 -16 -15 -28 3 -28 8 0 15 9 15 20 0 23 -2 24 -18 8z"/>
<path d="M4898 2723 c12 -2 32 -2 45 0 12 2 2 4 -23 4 -25 0 -35 -2 -22 -4z"/>
<path d="M2494 2585 c-4 -9 -4 -18 -1 -22 11 -10 59 7 54 20 -6 19 -46 21 -53
2z"/>
<path d="M2720 2505 c0 -11 11 -15 40 -15 29 0 40 4 40 15 0 11 -11 15 -40 15
-29 0 -40 -4 -40 -15z"/>
<path d="M2768 2473 c6 -2 18 -2 25 0 6 3 1 5 -13 5 -14 0 -19 -2 -12 -5z"/>
<path d="M2860 2330 c0 -5 5 -10 10 -10 6 0 10 5 10 10 0 6 -4 10 -10 10 -5 0
-10 -4 -10 -10z"/>
</g>
</svg>
